<svg xmlns="http://www.w3.org/2000/svg" width="460" height="460" viewBox="0 0 460 460" fill="none">
  <g stroke="#F2F0EA" stroke-opacity="0.55" stroke-width="1.1" fill="none" stroke-linecap="round">
    
    <path d="M0 64 H460"></path>
    <path d="M0 158 H460"></path>
    <path d="M0 300 H460"></path>
    <path d="M0 392 H460"></path>
    <path d="M70 0 V460"></path>
    <path d="M196 0 V460"></path>
    <path d="M338 0 V460"></path>
    
    <path d="M0 460 L460 40"></path>
    <path d="M0 420 L420 0" stroke-opacity="0.32"></path>
    
    <path d="M-10 220 C90 180 130 300 230 270 C330 240 360 360 470 320" stroke-width="1.6" stroke-opacity="0.6"></path>
  </g>
  <g stroke="#F2F0EA" stroke-opacity="0.30" stroke-width="0.9" fill="none">
    
    <path d="M0 110 H460"></path><path d="M0 230 H460"></path><path d="M0 346 H460"></path>
    <path d="M132 0 V460"></path><path d="M266 0 V460"></path><path d="M404 0 V460"></path>
    
    <ellipse cx="118" cy="356" rx="44" ry="34"></ellipse>
    <ellipse cx="118" cy="356" rx="28" ry="21"></ellipse>
    <ellipse cx="118" cy="356" rx="13" ry="10"></ellipse>
    
    <rect x="210" y="78" width="40" height="28"></rect>
    <rect x="282" y="176" width="34" height="40"></rect>
    <rect x="96" y="186" width="28" height="26"></rect>
    <rect x="350" y="316" width="36" height="30"></rect>
  </g>
  <g fill="#F2F0EA" fill-opacity="0.5">
    
    <circle cx="196" cy="158" r="2.4"></circle>
    <circle cx="338" cy="300" r="2.4"></circle>
    <circle cx="70" cy="64" r="2.4"></circle>
    <circle cx="266" cy="392" r="2.4"></circle>
  </g>
</svg>